<svg width="48" height="48" viewBox="0 0 48 48" fill="none" xmlns="http://www.w3.org/2000/svg">
<path d="M16.5 40C14.8333 40 13.4167 39.4167 12.25 38.25C11.0833 37.0833 10.5 35.6667 10.5 34H7.95001C7.38334 34 6.90801 33.808 6.52401 33.424C6.14001 33.04 5.94867 32.5653 5.95001 32C5.95134 31.4347 6.14334 30.96 6.52601 30.576C6.90867 30.192 7.38334 30 7.95001 30H12.05C12.6167 29.3667 13.2833 28.8753 14.05 28.526C14.8167 28.1767 15.6333 28.0013 16.5 28C17.3667 27.9987 18.1833 28.174 18.95 28.526C19.7167 28.878 20.3833 29.3693 20.95 30H29.3L33.5 12H14C13.4333 12 12.9587 11.808 12.576 11.424C12.1933 11.04 12.0013 10.5653 12 10C11.9987 9.43467 12.1907 8.96 12.576 8.576C12.9613 8.192 13.436 8 14 8H36C36.6667 8 37.2 8.25 37.6 8.75C38 9.25 38.1167 9.81667 37.95 10.45L36.65 16H40.5C41.1333 16 41.7333 16.142 42.3 16.426C42.8667 16.71 43.3333 17.1013 43.7 17.6L47.45 22.55C47.8167 23.0167 48.05 23.5253 48.15 24.076C48.25 24.6267 48.25 25.1847 48.15 25.75L46.8 32.4C46.7 32.8667 46.4667 33.25 46.1 33.55C45.7333 33.85 45.3167 34 44.85 34H42.5C42.5 35.6667 41.9167 37.0833 40.75 38.25C39.5833 39.4167 38.1667 40 36.5 40C34.8333 40 33.4167 39.4167 32.25 38.25C31.0833 37.0833 30.5 35.6667 30.5 34H22.5C22.5 35.6667 21.9167 37.0833 20.75 38.25C19.5833 39.4167 18.1667 40 16.5 40ZM34.35 26H44L44.2 24.95L40.5 20H35.75L34.35 26ZM29.4 29.65L29.726 28.2C29.942 27.2333 30.2167 26.05 30.55 24.65C30.65 24.2167 30.75 23.8167 30.85 23.45C30.95 23.0833 31.0333 22.7167 31.1 22.35L31.426 20.9C31.642 19.9333 31.9167 18.75 32.25 17.35C32.5833 15.95 32.8587 14.7667 33.076 13.8L33.4 12.35L33.5 12L29.3 30L29.4 29.65ZM6.00001 26.65C5.43334 26.65 4.95867 26.4587 4.57601 26.076C4.19334 25.6933 4.00134 25.218 4.00001 24.65C3.99867 24.082 4.19067 23.6073 4.57601 23.226C4.96134 22.8447 5.43601 22.6527 6.00001 22.65H13C13.5667 22.65 14.042 22.842 14.426 23.226C14.81 23.61 15.0013 24.0847 15 24.65C14.9987 25.2153 14.8067 25.6907 14.424 26.076C14.0413 26.4613 13.5667 26.6527 13 26.65H6.00001ZM10 19.35C9.43334 19.35 8.95867 19.158 8.57601 18.774C8.19334 18.39 8.00134 17.9153 8.00001 17.35C7.99867 16.7847 8.19067 16.31 8.57601 15.926C8.96134 15.542 9.43601 15.35 10 15.35H19C19.5667 15.35 20.042 15.542 20.426 15.926C20.81 16.31 21.0013 16.7847 21 17.35C20.9987 17.9153 20.8067 18.3907 20.424 18.776C20.0413 19.1613 19.5667 19.3527 19 19.35H10ZM16.5 36C17.0667 36 17.542 35.808 17.926 35.424C18.31 35.04 18.5013 34.5653 18.5 34C18.4987 33.4347 18.3067 32.96 17.924 32.576C17.5413 32.192 17.0667 32 16.5 32C15.9333 32 15.4587 32.192 15.076 32.576C14.6933 32.96 14.5013 33.4347 14.5 34C14.4987 34.5653 14.6907 35.0407 15.076 35.426C15.4613 35.8113 15.936 36.0027 16.5 36ZM36.5 36C37.0667 36 37.542 35.808 37.926 35.424C38.31 35.04 38.5013 34.5653 38.5 34C38.4987 33.4347 38.3067 32.96 37.924 32.576C37.5413 32.192 37.0667 32 36.5 32C35.9333 32 35.4587 32.192 35.076 32.576C34.6933 32.96 34.5013 33.4347 34.5 34C34.4987 34.5653 34.6907 35.0407 35.076 35.426C35.4613 35.8113 35.936 36.0027 36.5 36Z" fill="white"/>
</svg>
