<svg width="666" height="68" viewBox="0 0 666 68" fill="none" xmlns="http://www.w3.org/2000/svg">
<g clip-path="url(#clip0_13_62)">
<path d="M65 48.75C65 50.6655 64.2391 52.5025 62.8847 53.8569C61.5302 55.2113 59.6932 55.9722 57.7778 55.9722H7.22222C5.30677 55.9722 3.46977 55.2113 2.11534 53.8569C0.760911 52.5025 0 50.6655 0 48.75V43.3333C0 41.4179 0.760911 39.5809 2.11534 38.2265C3.46977 36.872 5.30677 36.1111 7.22222 36.1111H57.7778C59.6932 36.1111 61.5302 36.872 62.8847 38.2265C64.2391 39.5809 65 41.4179 65 43.3333V48.75Z" fill="#DD2E44"/>
<path d="M34.3056 23.4722L32.5379 21.6667H12.9025C7.22222 21.6667 5.41667 25.2778 5.41667 25.2778L0 36.0371V45.1389H34.3056V23.4722Z" fill="#FFCC4D"/>
<path d="M16.25 36.1111H3.61111L7.22223 28.8889C7.22223 28.8889 9.02778 25.2778 12.6389 25.2778H16.25V36.1111Z" fill="#55ACEE"/>
<path d="M16.25 63.1944C20.2387 63.1944 23.4722 59.9609 23.4722 55.9722C23.4722 51.9835 20.2387 48.75 16.25 48.75C12.2613 48.75 9.02777 51.9835 9.02777 55.9722C9.02777 59.9609 12.2613 63.1944 16.25 63.1944Z" fill="#292F33"/>
<path d="M16.25 59.5833C18.2444 59.5833 19.8611 57.9666 19.8611 55.9722C19.8611 53.9779 18.2444 52.3611 16.25 52.3611C14.2556 52.3611 12.6389 53.9779 12.6389 55.9722C12.6389 57.9666 14.2556 59.5833 16.25 59.5833Z" fill="#CCD6DD"/>
<path d="M48.75 63.1944C52.7387 63.1944 55.9722 59.9609 55.9722 55.9722C55.9722 51.9835 52.7387 48.75 48.75 48.75C44.7613 48.75 41.5278 51.9835 41.5278 55.9722C41.5278 59.9609 44.7613 63.1944 48.75 63.1944Z" fill="#292F33"/>
<path d="M48.75 59.5833C50.7444 59.5833 52.3611 57.9666 52.3611 55.9722C52.3611 53.9779 50.7444 52.3611 48.75 52.3611C46.7556 52.3611 45.1389 53.9779 45.1389 55.9722C45.1389 57.9666 46.7556 59.5833 48.75 59.5833Z" fill="#CCD6DD"/>
<path d="M57.7778 14.4445H30.6945C28.779 14.4445 26.942 15.2054 25.5876 16.5598C24.2331 17.9142 23.4722 19.7512 23.4722 21.6667V45.1389H65V21.6667C65 19.7512 64.2391 17.9142 62.8847 16.5598C61.5302 15.2054 59.6932 14.4445 57.7778 14.4445Z" fill="#CCD6DD"/>
</g>
<path d="M621.862 58.4177C626.838 61.03 629.325 62.3333 632 62.3333V34L605.474 20.0402L605.361 20.23C603.667 23.103 603.667 26.6815 603.667 33.8357V34.1672C603.667 41.3185 603.667 44.897 605.358 47.77C607.053 50.6458 610.101 52.2467 616.196 55.4455L621.862 58.4177Z" fill="#FCD19C"/>
<path opacity="0.7" d="M647.801 12.5573L642.135 9.58232C637.162 6.97282 634.675 5.66666 632 5.66666C629.322 5.66666 626.838 6.96999 621.862 9.58232L616.196 12.5573C610.234 15.6853 607.186 17.2833 605.474 20.0373L632 34L658.526 20.0402C656.809 17.2833 653.766 15.6853 647.801 12.5573Z" fill="#FCD19C"/>
<path opacity="0.5" d="M658.642 20.23L658.526 20.0402L632 34V62.3333C634.675 62.3333 637.162 61.03 642.138 58.4177L647.804 55.4427C653.899 52.2438 656.948 50.6458 658.642 47.77C660.333 44.897 660.333 41.3185 660.333 34.17V33.8385C660.333 26.6843 660.333 23.103 658.642 20.23Z" fill="#FCD19C"/>
<path d="M615.915 12.7047L616.199 12.5573L620.429 10.336L646.212 24.5168L657.616 18.819C658.003 19.2572 658.345 19.7276 658.642 20.23C659.067 20.9497 659.384 21.7147 659.622 22.5675L648.292 28.2313V36.8333C648.292 37.3969 648.068 37.9374 647.669 38.3359C647.271 38.7344 646.73 38.9583 646.167 38.9583C645.603 38.9583 645.063 38.7344 644.664 38.3359C644.266 37.9374 644.042 37.3969 644.042 36.8333V30.3563L634.125 35.3147V62.0613C633.431 62.2413 632.717 62.3326 632 62.3333C631.297 62.3333 630.603 62.2427 629.875 62.0613V35.3147L604.381 22.5647C604.619 21.7147 604.936 20.9497 605.361 20.23C605.656 19.7276 605.998 19.2572 606.387 18.819L632 31.6257L641.597 26.8288L615.915 12.7047Z" fill="#FCD19C"/>
<defs>
<clipPath id="clip0_13_62">
<rect width="65" height="65" fill="white"/>
</clipPath>
</defs>
</svg>
