<svg width="65" height="65" viewBox="0 0 65 65" fill="none" xmlns="http://www.w3.org/2000/svg">
<g clip-path="url(#clip0_13_31)">
<path d="M65 48.75C65 50.6655 64.2391 52.5025 62.8847 53.8569C61.5302 55.2113 59.6932 55.9722 57.7778 55.9722H7.22222C5.30677 55.9722 3.46977 55.2113 2.11534 53.8569C0.760911 52.5025 0 50.6655 0 48.75V43.3333C0 41.4179 0.760911 39.5809 2.11534 38.2265C3.46977 36.872 5.30677 36.1111 7.22222 36.1111H57.7778C59.6932 36.1111 61.5302 36.872 62.8847 38.2265C64.2391 39.5809 65 41.4179 65 43.3333V48.75Z" fill="#DD2E44"/>
<path d="M34.3056 23.4722L32.5379 21.6667H12.9025C7.22222 21.6667 5.41667 25.2778 5.41667 25.2778L0 36.0371V45.1389H34.3056V23.4722Z" fill="#FFCC4D"/>
<path d="M16.25 36.1111H3.61111L7.22223 28.8889C7.22223 28.8889 9.02778 25.2778 12.6389 25.2778H16.25V36.1111Z" fill="#55ACEE"/>
<path d="M16.25 63.1944C20.2387 63.1944 23.4722 59.9609 23.4722 55.9722C23.4722 51.9835 20.2387 48.75 16.25 48.75C12.2613 48.75 9.02777 51.9835 9.02777 55.9722C9.02777 59.9609 12.2613 63.1944 16.25 63.1944Z" fill="#292F33"/>
<path d="M16.25 59.5833C18.2444 59.5833 19.8611 57.9666 19.8611 55.9722C19.8611 53.9779 18.2444 52.3611 16.25 52.3611C14.2556 52.3611 12.6389 53.9779 12.6389 55.9722C12.6389 57.9666 14.2556 59.5833 16.25 59.5833Z" fill="#CCD6DD"/>
<path d="M48.75 63.1944C52.7387 63.1944 55.9722 59.9609 55.9722 55.9722C55.9722 51.9835 52.7387 48.75 48.75 48.75C44.7613 48.75 41.5278 51.9835 41.5278 55.9722C41.5278 59.9609 44.7613 63.1944 48.75 63.1944Z" fill="#292F33"/>
<path d="M48.75 59.5833C50.7444 59.5833 52.3611 57.9666 52.3611 55.9722C52.3611 53.9779 50.7444 52.3611 48.75 52.3611C46.7556 52.3611 45.1389 53.9779 45.1389 55.9722C45.1389 57.9666 46.7556 59.5833 48.75 59.5833Z" fill="#CCD6DD"/>
<path d="M57.7778 14.4445H30.6945C28.779 14.4445 26.942 15.2054 25.5876 16.5598C24.2331 17.9142 23.4722 19.7512 23.4722 21.6667V45.1389H65V21.6667C65 19.7512 64.2391 17.9142 62.8847 16.5598C61.5302 15.2054 59.6932 14.4445 57.7778 14.4445Z" fill="#CCD6DD"/>
</g>
<defs>
<clipPath id="clip0_13_31">
<rect width="65" height="65" fill="white"/>
</clipPath>
</defs>
</svg>
