<svg width="68" height="68" viewBox="0 0 68 68" fill="none" xmlns="http://www.w3.org/2000/svg">
<path d="M23.8624 58.4177C28.8377 61.03 31.3254 62.3333 34 62.3333V34L7.47435 20.0402L7.36102 20.23C5.66669 23.103 5.66669 26.6815 5.66669 33.8357V34.1672C5.66669 41.3185 5.66669 44.897 7.35819 47.77C9.05252 50.6458 12.1012 52.2467 18.1957 55.4455L23.8624 58.4177Z" fill="#FCD19C"/>
<path opacity="0.7" d="M49.8015 12.5573L44.1348 9.58232C39.1623 6.97282 36.6746 5.66666 34 5.66666C31.3225 5.66666 28.8376 6.96999 23.8623 9.58232L18.1956 12.5573C12.2343 15.6853 9.18564 17.2833 7.4743 20.0373L34 34L60.5256 20.0402C58.8086 17.2833 55.7656 15.6853 49.8015 12.5573Z" fill="#FCD19C"/>
<path opacity="0.5" d="M60.6418 20.23L60.5257 20.0402L34 34V62.3333C36.6747 62.3333 39.1623 61.03 44.1377 58.4177L49.8043 55.4427C55.8988 52.2438 58.9475 50.6458 60.6418 47.77C62.3333 44.897 62.3333 41.3185 62.3333 34.17V33.8385C62.3333 26.6843 62.3333 23.103 60.6418 20.23Z" fill="#FCD19C"/>
<path d="M17.9152 12.7047L18.1985 12.5573L22.4287 10.336L48.212 24.5168L59.6162 18.819C60.0034 19.2572 60.3453 19.7276 60.6418 20.23C61.0668 20.9497 61.3842 21.7147 61.6222 22.5675L50.2917 28.2313V36.8333C50.2917 37.3969 50.0678 37.9374 49.6693 38.3359C49.2708 38.7344 48.7303 38.9583 48.1667 38.9583C47.6031 38.9583 47.0626 38.7344 46.6641 38.3359C46.2656 37.9374 46.0417 37.3969 46.0417 36.8333V30.3563L36.125 35.3147V62.0613C35.431 62.2413 34.717 62.3326 34 62.3333C33.2973 62.3333 32.6032 62.2427 31.875 62.0613V35.3147L6.38068 22.5647C6.61868 21.7147 6.93601 20.9497 7.36101 20.23C7.65568 19.7276 7.99757 19.2572 8.38668 18.819L34 31.6257L43.5965 26.8288L17.9152 12.7047Z" fill="#FCD19C"/>
</svg>
